<?xml version="1.0" encoding="UTF-8"?>
<svg width="23px" height="22px" viewBox="0 0 23 22" version="1.1" xmlns="http://www.w3.org/2000/svg" xmlns:xlink="http://www.w3.org/1999/xlink">
    <!-- Generator: Sketch 52.5 (67469) - http://www.bohemiancoding.com/sketch -->
    <title>Group 9</title>
    <desc>Created with Sketch.</desc>
    <defs>
        <polygon id="path-1" points="0.111093168 0.0882682927 12.7671056 0.0882682927 12.7671056 22 0.111093168 22"></polygon>
        <polygon id="path-3" points="0 22 22.8789068 22 22.8789068 0.0882682927 0 0.0882682927"></polygon>
    </defs>
    <g id="Symbols" stroke="none" stroke-width="1" fill="none" fill-rule="evenodd">
        <g id="Desktop---Counts-Bottom-Bar" transform="translate(-11.000000, -12.000000)">
            <g id="Group-25">
                <g id="Group-9" transform="translate(11.000000, 12.000000)">
                    <polygon id="Fill-1" fill="#5F6060" points="0 6 8 6 8 1 0 1"></polygon>
                    <polygon id="Fill-2" fill="#5F6060" points="0 21 8 21 8 16 0 16"></polygon>
                    <g id="Group-8">
                        <g id="Group-5" transform="translate(10.111801, 0.000000)">
                            <mask id="mask-2" fill="white">
                                <use xlink:href="#path-1"></use>
                            </mask>
                            <g id="Clip-4"></g>
                            <path d="M3.86913043,2.03982927 L3.86913043,0.0882682927 L0.111093168,3.12829268 L3.86913043,6.16831707 L3.86913043,4.18617073 C7.58699379,4.28543902 10.5809068,7.28307317 10.5809068,10.9562683 C10.5809068,14.6297317 7.58699379,17.6273659 3.86913043,17.7266341 L3.86913043,15.9199512 L0.111093168,18.9599756 L3.86913043,22 L3.86913043,19.8729756 C8.79248447,19.7731707 12.7672422,15.8131707 12.7672422,10.9562683 C12.7672422,6.09963415 8.79248447,2.13963415 3.86913043,2.03982927" id="Fill-3" fill="#5F6060" mask="url(#mask-2)"></path>
                        </g>
                        <mask id="mask-4" fill="white">
                            <use xlink:href="#path-3"></use>
                        </mask>
                        <g id="Clip-7"></g>
                        <polygon id="Fill-6" fill="#5F6060" mask="url(#mask-4)" points="0 13.6029756 7.83008696 13.6029756 7.83008696 8.30982927 0 8.30982927"></polygon>
                    </g>
                </g>
            </g>
        </g>
    </g>
</svg>