<?xml version="1.0" encoding="UTF-8"?>
<svg width="19px" height="22px" viewBox="0 0 19 22" version="1.1" xmlns="http://www.w3.org/2000/svg" xmlns:xlink="http://www.w3.org/1999/xlink">
    <!-- Generator: Sketch 52.5 (67469) - http://www.bohemiancoding.com/sketch -->
    <title>Group 12</title>
    <desc>Created with Sketch.</desc>
    <g id="Page-1" stroke="none" stroke-width="1" fill="none" fill-rule="evenodd">
        <g id="iPad---Routing---Venue---Artists-" transform="translate(-964.000000, -430.000000)" fill="#7B7C7C" fill-rule="nonzero">
            <g id="Group-16" transform="translate(20.000000, 409.000000)">
                <g id="Group-12" transform="translate(944.000000, 21.000000)">
                    <g id="trash">
                        <path d="M18.6730233,2.57960784 L12.9288372,2.57960784 L12.9288372,0.422745098 L5.76186047,0.422745098 L5.76186047,2.57960784 L0.0176744186,2.57960784 L0.0176744186,4.69764706 L1.78511628,4.69764706 L1.78511628,20.0631373 C1.78276561,20.5737421 1.98888836,21.0642212 2.35789231,21.4260856 C2.72689625,21.78795 3.22837095,21.9913777 3.75139535,21.9913725 L14.9216279,21.9913725 C16.0075739,21.9913725 16.887907,21.1319348 16.887907,20.0717647 L16.887907,4.69764706 L18.6553488,4.69764706 L18.6553488,2.57960784 L18.6730233,2.57960784 Z M14.6962791,19.8345098 L3.97232558,19.8345098 L3.97232558,4.69764706 L14.7006977,4.69764706 L14.7006977,19.8345098 L14.6962791,19.8345098 Z" id="Shape"></path>
                        <polygon id="Rectangle-path" points="5.36418605 7.41529412 7.15372093 7.41529412 7.15372093 17.3066667 5.36418605 17.3066667"></polygon>
                        <polygon id="Rectangle-path" points="8.44395349 7.41529412 10.2334884 7.41529412 10.2334884 17.3066667 8.44395349 17.3066667"></polygon>
                        <polygon id="Rectangle-path" points="11.5237209 7.41529412 13.3132558 7.41529412 13.3132558 17.3066667 11.5237209 17.3066667"></polygon>
                    </g>
                </g>
            </g>
        </g>
    </g>
</svg>