<?xml version="1.0" encoding="UTF-8"?>
<svg width="22px" height="25px" viewBox="0 0 22 25" version="1.1" xmlns="http://www.w3.org/2000/svg" xmlns:xlink="http://www.w3.org/1999/xlink">
    <!-- Generator: Sketch 52.6 (67491) - http://www.bohemiancoding.com/sketch -->
    <title>Excel Icon</title>
    <desc>Created with Sketch.</desc>
    <defs>
        <polygon id="path-1" points="0.1505 0.294 19.5 0.294 19.5 24.9998 0.1505 24.9998"></polygon>
        <polygon id="path-3" points="0 0.3911 18.2496 0.3911 18.2496 9.7041 0 9.7041"></polygon>
    </defs>
    <g id="Symbols" stroke="none" stroke-width="1" fill="none" fill-rule="evenodd">
        <g id="Rep-info-area---artist" transform="translate(-963.000000, -21.000000)">
            <g id="Group-20">
                <g id="Excel-Icon" transform="translate(963.000000, 20.000000)">
                    <g id="Group-7">
                        <g id="Group-3" transform="translate(2.000000, 0.706000)">
                            <mask id="mask-2" fill="white">
                                <use xlink:href="#path-1"></use>
                            </mask>
                            <g id="Clip-2"></g>
                            <path d="M15.5005,5.1948 L15.5005,5.1458 C15.0005,5.1458 14.5505,4.7548 14.5505,4.2148 L14.5505,1.8618 L17.9505,5.1948 L15.5005,5.1948 Z M13.9505,0.2938 L1.8005,0.2938 C0.8505,0.2938 0.1505,1.0288 0.1505,1.9108 L0.1505,9.5578 L0.8505,9.5578 L0.8505,1.9108 C0.8505,1.4208 1.2505,0.9798 1.8005,0.9798 L13.7005,0.9798 L13.8505,1.1748 L13.8505,4.2638 C13.8505,5.1458 14.6005,5.8818 15.5005,5.8818 L18.6505,5.8818 L18.8005,6.0288 L18.8005,23.3818 C18.8005,23.8718 18.4005,24.3128 17.8505,24.3128 L1.8005,24.3128 C1.3005,24.3128 0.8505,23.9208 0.8505,23.3818 L0.8505,20.4898 L0.1505,20.4898 L0.1505,23.3818 C0.1505,24.2638 0.9005,24.9998 1.8005,24.9998 L17.8505,24.9998 C18.7505,24.9998 19.5005,24.2638 19.5005,23.3818 L19.5005,5.7338 L13.9505,0.2938 Z" id="Fill-1" fill="#5F6060" mask="url(#mask-2)"></path>
                        </g>
                        <g id="Group-6" transform="translate(0.000000, 10.706000)">
                            <mask id="mask-4" fill="white">
                                <use xlink:href="#path-3"></use>
                            </mask>
                            <g id="Clip-5"></g>
                            <path d="M16.1826,7.5981 L12.7016,7.5981 L12.7016,2.6821 L13.7286,2.6821 L13.7286,6.7141 L16.1826,6.7141 L16.1826,7.5981 Z M8.9406,6.4361 C9.1636,6.7101 9.4466,6.8481 9.7906,6.8481 C10.1426,6.8481 10.4116,6.7301 10.5966,6.4941 C10.6986,6.3681 10.7836,6.1781 10.8506,5.9241 L11.8706,5.9241 C11.7826,6.4601 11.5576,6.8951 11.1966,7.2311 C10.8346,7.5671 10.3706,7.7351 9.8056,7.7351 C9.1066,7.7351 8.5566,7.5081 8.1566,7.0551 C7.7556,6.5981 7.5566,5.9741 7.5566,5.1811 C7.5566,4.3221 7.7836,3.6611 8.2386,3.1961 C8.6346,2.7911 9.1386,2.5891 9.7496,2.5891 C10.5676,2.5891 11.1666,2.8611 11.5446,3.4031 C11.7536,3.7071 11.8656,4.0131 11.8806,4.3201 L10.8536,4.3201 C10.7886,4.0841 10.7046,3.9071 10.6026,3.7861 C10.4196,3.5731 10.1486,3.4661 9.7886,3.4661 C9.4226,3.4661 9.1346,3.6171 8.9236,3.9181 C8.7116,4.2191 8.6066,4.6461 8.6066,5.1971 C8.6066,5.7481 8.7176,6.1611 8.9406,6.4361 Z M5.9206,7.5981 L4.9866,5.9221 L3.9996,7.5981 L2.8056,7.5981 L4.3866,5.0941 L2.8826,2.6821 L4.1096,2.6821 L4.9866,4.2841 L5.8866,2.6821 L7.0746,2.6821 L5.5696,5.0541 L7.1676,7.5981 L5.9206,7.5981 Z M16.5996,0.3911 L1.6496,0.3911 C0.7496,0.3911 -0.0004,1.1261 -0.0004,2.0091 L-0.0004,8.0871 C-0.0004,8.9701 0.7496,9.7041 1.6496,9.7041 L16.5506,9.7041 C17.4996,9.7041 18.2496,8.9701 18.2496,8.0871 L18.2496,2.0091 C18.2496,1.1261 17.4996,0.3911 16.5996,0.3911 Z" id="Fill-4" fill="#5F6060" mask="url(#mask-4)"></path>
                        </g>
                    </g>
                </g>
            </g>
        </g>
    </g>
</svg>